<svg xmlns="http://www.w3.org/2000/svg" width="1024" height="1024" viewBox="0 0 1024 1024">
  <defs>
    <linearGradient id="base" x1="170" y1="120" x2="860" y2="920" gradientUnits="userSpaceOnUse">
      <stop offset="0" stop-color="#F9FDFF"/>
      <stop offset="0.42" stop-color="#DDF1FF"/>
      <stop offset="1" stop-color="#A9D4FF"/>
    </linearGradient>
    <linearGradient id="ring" x1="268" y1="220" x2="770" y2="810" gradientUnits="userSpaceOnUse">
      <stop offset="0" stop-color="#00C2FF"/>
      <stop offset="0.52" stop-color="#1677FF"/>
      <stop offset="1" stop-color="#7A5CFF"/>
    </linearGradient>
    <linearGradient id="dot" x1="410" y1="340" x2="630" y2="690" gradientUnits="userSpaceOnUse">
      <stop offset="0" stop-color="#FFFFFF"/>
      <stop offset="0.35" stop-color="#E9F7FF"/>
      <stop offset="1" stop-color="#C9E7FF"/>
    </linearGradient>
    <filter id="softShadow" x="-20%" y="-20%" width="140%" height="150%">
      <feDropShadow dx="0" dy="34" stdDeviation="36" flood-color="#0B4EA2" flood-opacity="0.28"/>
    </filter>
    <filter id="innerGlow" x="-20%" y="-20%" width="140%" height="140%">
      <feDropShadow dx="0" dy="-10" stdDeviation="18" flood-color="#FFFFFF" flood-opacity="0.72"/>
    </filter>
  </defs>

  <rect width="1024" height="1024" rx="226" fill="url(#base)" filter="url(#softShadow)"/>
  <path d="M184 246C184 211.2 212.2 183 247 183H777C811.8 183 840 211.2 840 246V777C840 811.8 811.8 840 777 840H247C212.2 840 184 811.8 184 777V246Z" fill="#FFFFFF" opacity="0.22"/>
  <path d="M205 252C205 225.5 226.5 204 253 204H770C796.5 204 818 225.5 818 252V320C818 346.5 796.5 368 770 368H253C226.5 368 205 346.5 205 320V252Z" fill="#FFFFFF" opacity="0.28"/>

  <circle cx="512" cy="512" r="286" fill="none" stroke="#FFFFFF" stroke-opacity="0.48" stroke-width="76"/>
  <path d="M512 226C670 226 798 354 798 512C798 670 670 798 512 798" fill="none" stroke="url(#ring)" stroke-width="82" stroke-linecap="round"/>
  <circle cx="512" cy="512" r="176" fill="#0B1730" opacity="0.13"/>
  <circle cx="512" cy="512" r="142" fill="url(#dot)" filter="url(#innerGlow)"/>
  <circle cx="512" cy="512" r="74" fill="#16213D"/>
  <circle cx="512" cy="512" r="31" fill="#FFFFFF"/>
  <path d="M386 318C414 292 454 274 502 267" fill="none" stroke="#FFFFFF" stroke-opacity="0.7" stroke-width="18" stroke-linecap="round"/>
  <path d="M315 703C363 761 434 797 512 797" fill="none" stroke="#FFFFFF" stroke-opacity="0.38" stroke-width="18" stroke-linecap="round"/>
</svg>
